<?xml version="1.0" standalone="no"?>
<!DOCTYPE svg PUBLIC "-//W3C//DTD SVG 20010904//EN"
 "http://www.w3.org/TR/2001/REC-SVG-20010904/DTD/svg10.dtd">
<svg version="1.0" xmlns="http://www.w3.org/2000/svg"
 width="1000.000000pt" height="1000.000000pt" viewBox="0 0 1000.000000 1000.000000"
 preserveAspectRatio="xMidYMid meet">
<metadata>
Created by potrace 1.11, written by Peter Selinger 2001-2013
</metadata>
<g transform="translate(0.000000,1000.000000) scale(0.100000,-0.100000)"
fill="#000000" stroke="none">
<path d="M3085 6243 c-471 -40 -722 -224 -825 -605 -10 -40 -23 -103 -28 -140
l-9 -68 297 0 297 0 12 58 c22 115 106 211 209 243 104 31 328 19 421 -22 187
-82 202 -348 23 -399 -20 -6 -185 -33 -367 -61 -384 -58 -461 -75 -570 -128
-156 -75 -257 -171 -321 -306 -57 -119 -69 -181 -69 -355 0 -135 3 -165 24
-230 29 -94 48 -130 104 -205 80 -106 207 -186 356 -227 99 -28 347 -30 457
-5 173 39 303 110 438 238 46 43 86 79 88 79 3 0 8 -26 12 -57 4 -32 16 -93
27 -135 l21 -78 334 0 334 0 0 44 c0 40 -4 47 -35 66 -45 28 -81 90 -94 164
-7 39 -11 312 -11 785 -1 808 -2 827 -64 958 -120 252 -457 398 -904 391 -64
-1 -135 -3 -157 -5z m525 -1438 c0 -250 -25 -331 -136 -435 -107 -99 -261
-159 -410 -160 -127 0 -230 61 -274 162 -19 44 -22 65 -18 142 9 194 97 270
373 322 216 41 327 69 391 102 33 16 62 30 67 30 4 1 7 -72 7 -163z"/>
<path d="M4520 6188 c1 -2 150 -529 334 -1173 l332 -1170 319 0 319 0 173 795
c95 437 178 820 184 850 7 30 14 48 17 40 3 -8 87 -390 187 -850 l181 -835
319 0 319 0 328 1145 c180 630 330 1157 333 1173 l7 27 -316 0 -315 0 -10 -37
c-5 -21 -87 -391 -181 -823 -178 -815 -180 -824 -185 -818 -3 3 -355 1659
-355 1672 0 3 -140 5 -312 4 l-312 -3 -165 -832 c-91 -458 -168 -833 -171
-833 -4 0 -237 1043 -362 1628 l-10 42 -329 0 c-181 0 -329 -1 -329 -2z"/>
</g>
</svg>
